<?xml version="1.0" encoding="UTF-8"?><svg id="Layer_2" xmlns="http://www.w3.org/2000/svg" viewBox="0 0 248.06 115.61"><defs><style>.cls-1{fill:#fff;}</style></defs><path d="m22.45,102.81s1.18-8.17,8.42-8.17c0,0,1.45-11.23,14.39-6.81,0,0,9.7-14.32,20-1.03,0,0,12.46-1.01,9.85,13.97s-54.7,16-52.65,2.04Z"/><path class="cls-1" d="m22.93,105.75s1.18-8.17,8.42-8.17c0,0,1.45-11.23,14.39-6.81,0,0,9.7-14.32,20-1.03,0,0,12.46-1.01,9.85,13.97s-54.7,16-52.65,2.04Z"/><circle cx="64.15" cy="99.23" r="1.36"/><circle cx="51.64" cy="99.23" r="1.36"/><path d="m65.51,105.28s-5.19,4.34-7.83,4.77"/></svg>