<?xml version="1.0" encoding="UTF-8"?><svg id="Layer_1" xmlns="http://www.w3.org/2000/svg" viewBox="0 0 248.06 37.68"><defs><style>.cls-1{fill:#fff;}.cls-2{fill:#118ab2;}</style></defs><g><path d="m2.29,24.14h7.96c.34.62.98,1.06,1.93,1.3.95.24,2.31.36,4.09.36,1.37,0,2.38-.07,3.04-.22.66-.14,1.09-.34,1.3-.58.2-.24.31-.49.31-.76,0-.41-.22-.69-.67-.85-.44-.16-1.19-.25-2.25-.29-1.06-.04-2.51-.05-4.36-.05-1.75,0-3.32-.08-4.7-.23-1.38-.16-2.55-.41-3.51-.76-.96-.35-1.69-.83-2.2-1.46s-.76-1.4-.76-2.34c0-1.15.37-2.12,1.12-2.9.74-.78,1.75-1.39,3.02-1.84,1.27-.44,2.74-.76,4.41-.95,1.67-.19,3.41-.29,5.24-.29,3.02,0,5.5.31,7.42.92,1.92.61,3.34,1.43,4.25,2.47.91,1.03,1.36,2.2,1.33,3.49h-7.74c-.26-.62-.76-1.06-1.49-1.3-.73-.24-1.99-.36-3.76-.36-1.68,0-2.9.13-3.65.38s-1.13.65-1.13,1.21c0,.36.19.63.56.81.37.18,1.08.31,2.12.38,1.04.07,2.57.11,4.59.11,1.39,0,2.75.05,4.09.14,1.33.1,2.53.3,3.6.61,1.07.31,1.91.79,2.54,1.44.62.65.94,1.54.94,2.66,0,1.37-.56,2.48-1.67,3.33-1.12.85-2.69,1.47-4.73,1.85-2.04.38-4.45.58-7.24.58-2.42,0-4.47-.16-6.14-.47-1.67-.31-3.03-.73-4.09-1.24-1.06-.52-1.87-1.08-2.43-1.69-.56-.61-.94-1.22-1.12-1.84-.18-.61-.25-1.16-.2-1.64Z"/><path d="m33.14,5.64h8.64v24.84h-8.64V5.64Zm30.53,7.2l-14.26,9.9.18-4.68,15.3,12.42h-10.94l-12.02-10.04,10.3-7.6h11.45Z"/><path d="m65.25,12.84h9.18l10.51,16.92-7.45.72-12.24-17.64Zm33.12,0l-17.53,24.84h-8.82l7.52-10.19,9.65-14.65h9.18Z"/><path d="m116.91,27.24l-4.1-.07,9.07-14.33h9.54l-12.56,17.64h-8.14l-11.99-17.64h9.5l8.68,14.4Z"/><path d="m142.73,3.58v5.4h-9.14V3.58h9.14Zm-8.89,9.25h8.64v17.64h-8.64V12.84Z"/><path d="m170.66,24.14h8.5c-.22,1.39-.91,2.6-2.07,3.64-1.16,1.03-2.86,1.83-5.08,2.39-2.22.56-5.05.85-8.48.85-3.62,0-6.75-.29-9.38-.86-2.63-.58-4.65-1.55-6.07-2.92-1.42-1.37-2.12-3.22-2.12-5.54s.69-4.15,2.07-5.53,3.38-2.37,5.99-2.97c2.62-.6,5.78-.9,9.5-.9s6.64.32,8.96.97c2.33.65,4.04,1.7,5.15,3.15,1.1,1.45,1.63,3.41,1.58,5.89h-24.48c.12.62.46,1.2,1.03,1.73s1.44.95,2.63,1.28c1.19.32,2.78.49,4.77.49s3.76-.14,5.09-.43c1.33-.29,2.13-.7,2.39-1.22Zm-7.49-6.62c-2.54,0-4.48.28-5.81.83-1.33.55-2.12,1.1-2.36,1.66h15.84c-.17-.62-.84-1.19-2.02-1.71-1.18-.52-3.06-.77-5.65-.77Z"/><path d="m218.25,27.16l-3.74-.07,7.81-14.26h9.54l-11.12,17.64h-8.14l-9.11-13.68,4.25.04-9.47,13.64h-8.14l-10.55-17.64h9.5l7.34,14.26h-3.71l8.14-14.26h9.54l7.85,14.33Z"/></g><g><path class="cls-2" d="m.02,22.6h7.96c.34.62.98,1.06,1.93,1.3.95.24,2.31.36,4.09.36,1.37,0,2.38-.07,3.04-.22.66-.14,1.09-.34,1.3-.58.2-.24.31-.49.31-.76,0-.41-.22-.69-.67-.85-.44-.16-1.19-.25-2.25-.29-1.06-.04-2.51-.05-4.36-.05-1.75,0-3.32-.08-4.7-.23-1.38-.16-2.55-.41-3.51-.76-.96-.35-1.69-.83-2.2-1.46s-.76-1.4-.76-2.34c0-1.15.37-2.12,1.12-2.9.74-.78,1.75-1.39,3.02-1.84,1.27-.44,2.74-.76,4.41-.95,1.67-.19,3.41-.29,5.24-.29,3.02,0,5.5.31,7.42.92,1.92.61,3.34,1.43,4.25,2.47.91,1.03,1.36,2.2,1.33,3.49h-7.74c-.26-.62-.76-1.06-1.49-1.3-.73-.24-1.99-.36-3.76-.36-1.68,0-2.9.13-3.65.38s-1.13.65-1.13,1.21c0,.36.19.63.56.81.37.18,1.08.31,2.12.38,1.04.07,2.57.11,4.59.11,1.39,0,2.75.05,4.09.14,1.33.1,2.53.3,3.6.61,1.07.31,1.91.79,2.54,1.44.62.65.94,1.54.94,2.66,0,1.37-.56,2.48-1.67,3.33-1.12.85-2.69,1.47-4.73,1.85-2.04.38-4.45.58-7.24.58-2.42,0-4.47-.16-6.14-.47-1.67-.31-3.03-.73-4.09-1.24-1.06-.52-1.87-1.08-2.43-1.69-.56-.61-.94-1.22-1.12-1.84-.18-.61-.25-1.16-.2-1.64Z"/><path class="cls-2" d="m30.87,4.1h8.64v24.84h-8.64V4.1Zm30.53,7.2l-14.26,9.9.18-4.68,15.3,12.42h-10.94l-12.02-10.04,10.3-7.6h11.45Z"/><path class="cls-2" d="m62.98,11.3h9.18l10.51,16.92-7.45.72-12.24-17.64Zm33.12,0l-17.53,24.84h-8.82l7.52-10.19,9.65-14.65h9.18Z"/><path class="cls-2" d="m114.64,25.7l-4.1-.07,9.07-14.33h9.54l-12.56,17.64h-8.14l-11.99-17.64h9.5l8.68,14.4Z"/><path class="cls-2" d="m140.45,2.04v5.4h-9.14V2.04h9.14Zm-8.89,9.25h8.64v17.64h-8.64V11.3Z"/><path class="cls-2" d="m168.39,22.6h8.5c-.22,1.39-.91,2.6-2.07,3.64-1.16,1.03-2.86,1.83-5.08,2.39-2.22.56-5.05.85-8.48.85-3.62,0-6.75-.29-9.38-.86-2.63-.58-4.65-1.55-6.07-2.92-1.42-1.37-2.12-3.22-2.12-5.54s.69-4.15,2.07-5.53,3.38-2.37,5.99-2.97c2.62-.6,5.78-.9,9.5-.9s6.64.32,8.96.97c2.33.65,4.04,1.7,5.15,3.15,1.1,1.45,1.63,3.41,1.58,5.89h-24.48c.12.62.46,1.2,1.03,1.73s1.44.95,2.63,1.28c1.19.32,2.78.49,4.77.49s3.76-.14,5.09-.43c1.33-.29,2.13-.7,2.39-1.22Zm-7.49-6.62c-2.54,0-4.48.28-5.81.83-1.33.55-2.12,1.1-2.36,1.66h15.84c-.17-.62-.84-1.19-2.02-1.71-1.18-.52-3.06-.77-5.65-.77Z"/><path class="cls-2" d="m215.98,25.62l-3.74-.07,7.81-14.26h9.54l-11.12,17.64h-8.14l-9.11-13.68,4.25.04-9.47,13.64h-8.14l-10.55-17.64h9.5l7.34,14.26h-3.71l8.14-14.26h9.54l7.85,14.33Z"/></g><ellipse class="cls-2" cx="241.81" cy="5.38" rx="6.26" ry="5.38"/><ellipse class="cls-1" cx="241.81" cy="5.38" rx="3.13" ry="2.69"/></svg>